<?xml version="1.0" standalone="no"?>
<!DOCTYPE svg PUBLIC "-//W3C//DTD SVG 20010904//EN"
 "http://www.w3.org/TR/2001/REC-SVG-20010904/DTD/svg10.dtd">
<svg version="1.0" xmlns="http://www.w3.org/2000/svg"
 width="178.000000pt" height="86.000000pt" viewBox="0 0 178.000000 86.000000"
 preserveAspectRatio="xMidYMid meet">

<g transform="translate(0.000000,86.000000) scale(0.100000,-0.100000)"
fill="#000000" stroke="none">
<path d="M0 430 l0 -430 890 0 890 0 0 430 0 430 -890 0 -890 0 0 -430z m1092
354 c18 -9 56 -43 83 -74 28 -31 58 -62 69 -69 10 -7 95 -20 190 -28 185 -17
225 -28 251 -67 20 -29 48 -244 38 -285 -10 -44 -41 -78 -85 -96 -24 -9 -57
-30 -75 -47 -57 -55 -162 -50 -217 11 -19 21 -25 21 -418 21 -343 0 -399 -2
-404 -15 -3 -8 -21 -24 -40 -36 -62 -38 -163 -21 -199 35 -9 13 -44 34 -84 50
-108 42 -115 55 -119 194 l-3 117 79 133 c47 79 91 142 108 153 27 18 53 19
411 19 335 0 386 -2 415 -16z"/>
<path d="M273 738 c-12 -13 -51 -73 -87 -135 l-66 -112 0 -109 c0 -123 1 -125
82 -160 l46 -20 7 46 c5 36 16 55 45 83 88 84 218 47 250 -70 6 -22 7 -46 4
-55 -6 -15 29 -16 375 -16 l381 0 0 39 c0 23 9 51 23 71 50 75 118 96 189 61
54 -27 79 -61 86 -117 5 -45 15 -53 43 -31 33 25 42 58 35 126 -18 179 -22
193 -54 210 -10 5 -99 17 -198 26 l-180 17 -59 -41 -58 -41 -426 0 c-234 0
-432 4 -439 9 -11 6 -1 33 42 119 31 62 56 114 56 117 0 3 -17 5 -38 5 -27 0
-45 -7 -59 -22z"/>
<path d="M362 655 l-52 -105 83 0 82 0 37 105 37 105 -67 0 -67 0 -53 -105z"/>
<path d="M552 662 c-18 -54 -32 -101 -32 -105 0 -4 72 -7 160 -7 88 0 160 3
160 8 0 4 -10 51 -22 104 l-23 98 -105 0 -106 0 -32 -98z"/>
<path d="M834 743 c3 -10 15 -57 27 -105 l21 -88 129 0 129 0 35 33 35 32 -43
51 c-73 89 -86 94 -221 94 -107 0 -117 -2 -112 -17z"/>
<path d="M336 315 c-68 -57 -57 -154 23 -190 49 -22 89 -14 127 26 49 51 34
143 -28 175 -38 19 -92 15 -122 -11z m84 -90 c0 -8 -7 -15 -15 -15 -8 0 -15 7
-15 15 0 8 7 15 15 15 8 0 15 -7 15 -15z"/>
<path d="M1403 321 c-39 -25 -53 -49 -53 -96 0 -108 139 -151 202 -62 69 97
-47 222 -149 158z m68 -96 c-1 -15 -24 -12 -29 3 -3 9 2 13 12 10 10 -1 17 -7
17 -13z"/>
</g>
</svg>
