<?xml version="1.0" standalone="no"?>
<!DOCTYPE svg PUBLIC "-//W3C//DTD SVG 20010904//EN"
 "http://www.w3.org/TR/2001/REC-SVG-20010904/DTD/svg10.dtd">
<svg version="1.0" xmlns="http://www.w3.org/2000/svg"
 width="64.000000pt" height="64.000000pt" viewBox="0 0 64.000000 64.000000"
 preserveAspectRatio="xMidYMid meet">
<metadata>
Created by potrace 1.10, written by Peter Selinger 2001-2011
</metadata>
<g transform="translate(0.000000,64.000000) scale(0.100000,-0.100000)"
fill="#000000" stroke="none">
<path d="M0 320 l0 -320 320 0 320 0 0 320 0 320 -320 0 -320 0 0 -320z m184
149 c-3 -5 -10 -7 -15 -3 -5 3 -7 10 -3 15 3 5 10 7 15 3 5 -3 7 -10 3 -15z
m-104 -49 c0 -5 -16 -10 -35 -10 -19 0 -35 5 -35 10 0 6 16 10 35 10 19 0 35
-4 35 -10z m205 -17 c-36 -3 -55 -10 -68 -26 l-18 -22 6 25 6 25 -21 -25 c-16
-18 -20 -32 -16 -54 12 -60 29 -72 103 -79 37 -4 87 -7 110 -7 23 0 45 -5 49
-12 5 -8 2 -9 -10 -5 -10 4 -73 7 -140 7 l-123 0 5 29 c3 22 -2 33 -23 50 -37
28 -51 27 -87 -9 -35 -35 -48 -38 -48 -9 0 11 4 17 10 14 6 -4 18 -1 26 6 13
10 13 14 -2 30 -15 17 -13 18 28 29 23 6 63 17 88 24 25 7 74 13 110 13 53 0
56 -1 15 -4z m-225 -13 c0 -5 -4 -10 -10 -10 -5 0 -10 5 -10 10 0 6 5 10 10
10 6 0 10 -4 10 -10z m346 -22 c37 -17 44 -23 29 -26 -10 -2 -21 0 -22 4 -2 5
-46 8 -98 6 -82 -3 -94 -1 -89 12 4 11 24 16 67 19 34 2 63 4 63 5 1 1 23 -8
50 -20z m-197 -57 c6 -19 9 -36 7 -39 -5 -5 -36 65 -36 81 0 19 17 -6 29 -42z
m335 33 c9 -3 16 -12 16 -19 0 -22 28 -44 50 -38 15 4 20 0 20 -15 0 -18 -3
-20 -32 -11 -18 5 -41 20 -53 33 -11 13 -29 27 -41 30 -26 8 -74 -28 -74 -55
0 -19 -5 -20 -87 -13 -96 7 -107 12 -121 52 l-9 27 118 -2 c70 -2 120 1 124 7
7 11 64 13 89 4z m65 -41 c2 -2 -3 -3 -11 -3 -9 0 -19 7 -22 16 -6 15 -4 15
11 3 10 -7 20 -15 22 -16z m-460 -25 c14 -24 14 -28 -3 -47 -23 -25 -53 -27
-78 -4 -22 20 -23 32 -2 61 22 31 63 26 83 -10z m388 2 c18 -36 -4 -65 -48
-65 -27 0 -35 5 -43 27 -21 59 63 94 91 38z m-493 -36 c4 -11 1 -14 -11 -12
-9 2 -18 9 -21 16 -6 18 25 15 32 -4z m585 -10 c2 -2 -14 -4 -37 -4 -32 0 -40
3 -36 14 4 12 12 12 37 4 18 -6 34 -13 36 -14z"/>
<path d="M268 299 c13 -12 132 -21 132 -10 0 5 -31 11 -70 13 -38 2 -66 0 -62
-3z"/>
<path d="M80 285 c-26 -31 13 -82 44 -56 19 16 21 42 4 59 -16 16 -33 15 -48
-3z m47 -21 c8 -22 -18 -37 -36 -20 -7 8 -10 19 -7 25 10 16 36 13 43 -5z"/>
<path d="M466 285 c-9 -9 -16 -20 -16 -25 0 -15 32 -41 48 -38 24 5 39 35 26
56 -15 23 -38 26 -58 7z m49 -15 c9 -15 -14 -40 -31 -33 -22 8 -18 43 5 43 11
0 23 -5 26 -10z"/>
</g>
</svg>
