<?xml version="1.0" standalone="no"?>
<!DOCTYPE svg PUBLIC "-//W3C//DTD SVG 20010904//EN"
 "http://www.w3.org/TR/2001/REC-SVG-20010904/DTD/svg10.dtd">
<svg version="1.0" xmlns="http://www.w3.org/2000/svg"
 width="64.000000pt" height="64.000000pt" viewBox="0 0 64.000000 64.000000"
 preserveAspectRatio="xMidYMid meet">
<metadata>
Created by potrace 1.10, written by Peter Selinger 2001-2011
</metadata>
<g transform="translate(0.000000,64.000000) scale(0.100000,-0.100000)"
fill="#000000" stroke="none">
<path d="M166 481 c-4 -5 -2 -12 3 -15 5 -4 12 -2 15 3 4 5 2 12 -3 15 -5 4
-12 2 -15 -3z"/>
<path d="M10 420 c0 -5 16 -10 35 -10 19 0 35 5 35 10 0 6 -16 10 -35 10 -19
0 -35 -4 -35 -10z"/>
<path d="M160 394 c-25 -7 -65 -18 -88 -24 -41 -11 -43 -12 -28 -29 15 -16 15
-20 2 -30 -8 -7 -20 -10 -26 -6 -6 3 -10 -3 -10 -14 0 -29 13 -26 48 9 36 36
50 37 87 9 21 -17 26 -28 23 -50 l-5 -29 123 0 c67 0 130 -3 140 -7 12 -4 15
-3 10 5 -4 7 -26 12 -49 12 -23 0 -73 3 -110 7 -74 7 -91 19 -103 79 -4 22 0
36 16 54 l21 25 -6 -25 -6 -25 18 22 c13 16 32 23 68 26 41 3 38 4 -15 4 -36
0 -85 -6 -110 -13z"/>
<path d="M40 390 c0 -5 5 -10 10 -10 6 0 10 5 10 10 0 6 -4 10 -10 10 -5 0
-10 -4 -10 -10z"/>
<path d="M293 383 c-43 -3 -63 -8 -67 -19 -5 -13 7 -15 89 -12 52 2 96 -1 98
-6 1 -4 12 -6 22 -4 15 3 8 9 -29 26 -27 12 -49 21 -50 20 0 -1 -29 -3 -63 -5z"/>
<path d="M180 353 c0 -16 31 -86 36 -81 2 3 -1 20 -7 39 -12 36 -29 61 -29 42z"/>
<path d="M455 340 c-4 -6 -54 -9 -124 -7 l-118 2 9 -27 c14 -40 25 -45 121
-52 82 -7 87 -6 87 13 0 27 48 63 74 55 12 -3 30 -17 41 -30 12 -13 35 -28 53
-33 29 -9 32 -7 32 11 0 15 -5 19 -20 15 -22 -6 -50 16 -50 38 0 7 -7 16 -16
19 -25 9 -82 7 -89 -4z m-55 -51 c0 -11 -119 -2 -132 10 -4 3 24 5 62 3 39 -2
70 -8 70 -13z"/>
<path d="M576 316 c3 -9 13 -16 22 -16 8 0 13 1 11 3 -2 1 -12 9 -22 16 -15
12 -17 12 -11 -3z"/>
<path d="M66 288 c-21 -29 -20 -41 2 -61 25 -23 55 -21 78 4 17 19 17 23 3 47
-20 36 -61 41 -83 10z m62 0 c17 -17 15 -43 -4 -59 -31 -26 -70 25 -44 56 15
18 32 19 48 3z"/>
<path d="M84 269 c-3 -6 0 -17 7 -25 18 -17 44 -2 36 20 -7 18 -33 21 -43 5z"/>
<path d="M455 290 c-15 -16 -17 -26 -9 -48 8 -22 16 -27 43 -27 44 0 66 29 48
65 -16 33 -57 38 -82 10z m69 -12 c13 -21 -2 -51 -26 -56 -16 -3 -48 23 -48
38 0 15 32 41 48 38 8 -2 20 -11 26 -20z"/>
<path d="M470 261 c0 -24 25 -34 40 -16 15 18 5 35 -21 35 -12 0 -19 -7 -19
-19z"/>
<path d="M12 248 c3 -7 12 -14 21 -16 12 -2 15 1 11 12 -7 19 -38 22 -32 4z"/>
<path d="M556 244 c-4 -11 4 -14 36 -14 46 0 47 2 1 18 -25 8 -33 8 -37 -4z"/>
</g>
</svg>
